<mxfile host="app.diagrams.net" agent="Mozilla/5.0 (Windows NT 10.0; Win64; x64) AppleWebKit/537.36 (KHTML, like Gecko) Chrome/135.0.0.0 Safari/537.36 Edg/135.0.0.0" version="26.2.15">
  <diagram name="第 1 页" id="UdygwMZjY8NdEYgGrUYn">
    <mxGraphModel dx="721" dy="422" grid="1" gridSize="10" guides="1" tooltips="1" connect="1" arrows="1" fold="1" page="1" pageScale="1" pageWidth="827" pageHeight="1169" math="0" shadow="0">
      <root>
        <mxCell id="0" />
        <mxCell id="1" parent="0" />
        <mxCell id="rkHvVx3Ez6-ziAKOJTC2-20" value="E" style="shape=trapezoid;perimeter=trapezoidPerimeter;whiteSpace=wrap;html=1;fixedSize=1;direction=south;size=7.5;fillColor=#fad7ac;strokeColor=#b46504;" vertex="1" parent="1">
          <mxGeometry x="170" y="62.5" width="30" height="75" as="geometry" />
        </mxCell>
        <mxCell id="rkHvVx3Ez6-ziAKOJTC2-22" value="" style="group" vertex="1" connectable="0" parent="1">
          <mxGeometry x="80" y="35" width="70" height="130" as="geometry" />
        </mxCell>
        <mxCell id="rkHvVx3Ez6-ziAKOJTC2-13" value="X1" style="text;html=1;align=center;verticalAlign=middle;whiteSpace=wrap;rounded=0;fontFamily=Georgia;container=0;" vertex="1" parent="rkHvVx3Ez6-ziAKOJTC2-22">
          <mxGeometry width="60" height="30" as="geometry" />
        </mxCell>
        <mxCell id="rkHvVx3Ez6-ziAKOJTC2-14" value="X2" style="text;html=1;align=center;verticalAlign=middle;whiteSpace=wrap;rounded=0;fontFamily=Georgia;container=0;" vertex="1" parent="rkHvVx3Ez6-ziAKOJTC2-22">
          <mxGeometry y="30" width="60" height="30" as="geometry" />
        </mxCell>
        <mxCell id="rkHvVx3Ez6-ziAKOJTC2-15" value="Xn-1" style="text;html=1;align=center;verticalAlign=middle;whiteSpace=wrap;rounded=0;fontFamily=Georgia;container=0;" vertex="1" parent="rkHvVx3Ez6-ziAKOJTC2-22">
          <mxGeometry y="100" width="60" height="30" as="geometry" />
        </mxCell>
        <mxCell id="rkHvVx3Ez6-ziAKOJTC2-16" value="" style="endArrow=none;dashed=1;html=1;dashPattern=1 3;strokeWidth=2;rounded=0;exitX=0.5;exitY=0;exitDx=0;exitDy=0;entryX=0.5;entryY=1;entryDx=0;entryDy=0;" edge="1" parent="rkHvVx3Ez6-ziAKOJTC2-22" source="rkHvVx3Ez6-ziAKOJTC2-15" target="rkHvVx3Ez6-ziAKOJTC2-14">
          <mxGeometry width="50" height="50" relative="1" as="geometry">
            <mxPoint x="100" y="100" as="sourcePoint" />
            <mxPoint x="150" y="50" as="targetPoint" />
          </mxGeometry>
        </mxCell>
        <mxCell id="rkHvVx3Ez6-ziAKOJTC2-17" value="" style="shape=curlyBracket;whiteSpace=wrap;html=1;rounded=1;flipH=1;labelPosition=right;verticalLabelPosition=middle;align=left;verticalAlign=middle;container=0;" vertex="1" parent="rkHvVx3Ez6-ziAKOJTC2-22">
          <mxGeometry x="50" y="5" width="20" height="120" as="geometry" />
        </mxCell>
        <mxCell id="rkHvVx3Ez6-ziAKOJTC2-23" value="" style="endArrow=openThin;html=1;rounded=0;strokeWidth=1;endFill=0;exitX=0.1;exitY=0.5;exitDx=0;exitDy=0;exitPerimeter=0;entryX=0.5;entryY=1;entryDx=0;entryDy=0;" edge="1" parent="1" source="rkHvVx3Ez6-ziAKOJTC2-17" target="rkHvVx3Ez6-ziAKOJTC2-20">
          <mxGeometry width="50" height="50" relative="1" as="geometry">
            <mxPoint x="250" y="210" as="sourcePoint" />
            <mxPoint x="300" y="160" as="targetPoint" />
          </mxGeometry>
        </mxCell>
        <mxCell id="rkHvVx3Ez6-ziAKOJTC2-24" value="" style="endArrow=openThin;html=1;rounded=0;strokeWidth=1;endFill=0;exitX=0.5;exitY=0;exitDx=0;exitDy=0;" edge="1" parent="1" source="rkHvVx3Ez6-ziAKOJTC2-20">
          <mxGeometry width="50" height="50" relative="1" as="geometry">
            <mxPoint x="211" y="110" as="sourcePoint" />
            <mxPoint x="233" y="100" as="targetPoint" />
          </mxGeometry>
        </mxCell>
        <mxCell id="rkHvVx3Ez6-ziAKOJTC2-29" value="Z1" style="text;html=1;align=center;verticalAlign=middle;whiteSpace=wrap;rounded=0;fontFamily=Georgia;container=0;" vertex="1" parent="1">
          <mxGeometry x="230" y="35" width="60" height="30" as="geometry" />
        </mxCell>
        <mxCell id="rkHvVx3Ez6-ziAKOJTC2-30" value="Z2" style="text;html=1;align=center;verticalAlign=middle;whiteSpace=wrap;rounded=0;fontFamily=Georgia;container=0;" vertex="1" parent="1">
          <mxGeometry x="230" y="65" width="60" height="30" as="geometry" />
        </mxCell>
        <mxCell id="rkHvVx3Ez6-ziAKOJTC2-31" value="Zn-1" style="text;html=1;align=center;verticalAlign=middle;whiteSpace=wrap;rounded=0;fontFamily=Georgia;container=0;" vertex="1" parent="1">
          <mxGeometry x="230" y="135" width="60" height="30" as="geometry" />
        </mxCell>
        <mxCell id="rkHvVx3Ez6-ziAKOJTC2-32" value="" style="endArrow=none;dashed=1;html=1;dashPattern=1 3;strokeWidth=2;rounded=0;exitX=0.5;exitY=0;exitDx=0;exitDy=0;entryX=0.5;entryY=1;entryDx=0;entryDy=0;" edge="1" source="rkHvVx3Ez6-ziAKOJTC2-31" target="rkHvVx3Ez6-ziAKOJTC2-30" parent="1">
          <mxGeometry width="50" height="50" relative="1" as="geometry">
            <mxPoint x="330" y="135" as="sourcePoint" />
            <mxPoint x="380" y="85" as="targetPoint" />
          </mxGeometry>
        </mxCell>
        <mxCell id="rkHvVx3Ez6-ziAKOJTC2-33" value="Z1" style="text;html=1;align=center;verticalAlign=middle;whiteSpace=wrap;rounded=0;fontFamily=Georgia;container=0;" vertex="1" parent="1">
          <mxGeometry x="300" y="35" width="60" height="30" as="geometry" />
        </mxCell>
        <mxCell id="rkHvVx3Ez6-ziAKOJTC2-34" value="Z2" style="text;html=1;align=center;verticalAlign=middle;whiteSpace=wrap;rounded=0;fontFamily=Georgia;container=0;" vertex="1" parent="1">
          <mxGeometry x="300" y="65" width="60" height="30" as="geometry" />
        </mxCell>
        <mxCell id="rkHvVx3Ez6-ziAKOJTC2-35" value="Zn-1" style="text;html=1;align=center;verticalAlign=middle;whiteSpace=wrap;rounded=0;fontFamily=Georgia;container=0;" vertex="1" parent="1">
          <mxGeometry x="300" y="135" width="60" height="30" as="geometry" />
        </mxCell>
        <mxCell id="rkHvVx3Ez6-ziAKOJTC2-36" value="" style="endArrow=none;dashed=1;html=1;dashPattern=1 3;strokeWidth=2;rounded=0;exitX=0.5;exitY=0;exitDx=0;exitDy=0;entryX=0.5;entryY=1;entryDx=0;entryDy=0;" edge="1" source="rkHvVx3Ez6-ziAKOJTC2-35" target="rkHvVx3Ez6-ziAKOJTC2-34" parent="1">
          <mxGeometry width="50" height="50" relative="1" as="geometry">
            <mxPoint x="400" y="135" as="sourcePoint" />
            <mxPoint x="450" y="85" as="targetPoint" />
          </mxGeometry>
        </mxCell>
      </root>
    </mxGraphModel>
  </diagram>
</mxfile>
